<svg version="1.1" id="图层_1" xmlns="http://www.w3.org/2000/svg" xmlns:xlink="http://www.w3.org/1999/xlink" x="0px" y="0px"
	 viewBox="0 0 24 24" style="enable-background:new 0 0 24 24;" class="qq" xml:space="preserve">
<style type="text/css">
	.st0{fill:none;stroke:#FFFFFF;stroke-width:2;stroke-linecap:round;}
</style>
<path class="st0" d="M21.4,18.7c-0.5,0.1-2-2.2-2-2.2c-0.1,1.6-0.9,3.1-2.3,4.2c0.8,0.2,2.5,0.8,2.1,1.4c-0.3,0.5-5.6,0.3-7.2,0.2
	c-1.5,0.2-6.8,0.3-7.2-0.2c-0.4-0.6,1.3-1.2,2.1-1.4c-1.4-1-2.2-2.5-2.3-4.2c0,0-1.5,2.2-2,2.2c-0.2,0-0.6-1.2,0.4-4.1
	c0.5-1.4,1-2.5,1.8-4.3c-0.1-4.8,2-8.8,7.2-8.8c5.1,0,7.3,3.9,7.2,8.8c0.8,1.9,1.3,3,1.8,4.3C22,17.5,21.6,18.7,21.4,18.7z"/>
</svg>
