<?xml version="1.0" encoding="utf-8"?>
<!-- Generator: Adobe Illustrator 25.2.3, SVG Export Plug-In . SVG Version: 6.00 Build 0)  -->
<svg version="1.1" id="图层_1" xmlns="http://www.w3.org/2000/svg" xmlns:xlink="http://www.w3.org/1999/xlink" x="0px" y="0px"
	 viewBox="0 0 24 24" style="enable-background:new 0 0 24 24;" xml:space="preserve">
<style type="text/css">
	.st0{fill:none;stroke:#FFFFFF;stroke-width:2;}
</style>
<path class="st0" d="M11.7,8c0.3,0,0.5-0.2,0.5-0.5C12.1,7.2,12,7,11.7,7s-0.6,0.2-0.6,0.5C11.1,7.8,11.4,8,11.7,8z M6.4,7
	C6.1,7,5.8,7.2,5.8,7.5C5.8,7.8,6.1,8,6.4,8c0.3,0,0.5-0.2,0.5-0.5C6.9,7.2,6.7,7,6.4,7z M23,14.4c0-3-2.8-5.5-6.2-5.8
	c0,0,0-0.1,0-0.1C16.1,5.4,12.7,3,8.9,3C4.6,3,1,6,1,9.7c0,2,1,3.8,2.9,5.2l-0.7,2c0,0.1,0,0.3,0.1,0.4c0.1,0.1,0.1,0.1,0.2,0.1
	c0.1,0,0.1,0,0.2,0l2.5-1.3l0.3,0.1c0.8,0.2,1.4,0.3,2.3,0.3c0.2,0,0.5,0,0.7,0c0.1,0,0.2-0.1,0.2-0.1c0.9,2.3,3.4,3.9,6.4,3.9
	c0.8,0,1.5-0.2,2.2-0.4l1.9,1.1c0.1,0,0.1,0,0.2,0c0.1,0,0.2,0,0.2-0.1c0.1-0.1,0.2-0.2,0.1-0.4l-0.5-1.7C22.1,17.6,23,16,23,14.4z
	 M14.2,12.4c-0.2,0-0.4,0.2-0.4,0.4c0,0.2,0.2,0.4,0.4,0.4c0.3,0,0.5-0.2,0.5-0.4C14.7,12.6,14.5,12.4,14.2,12.4z M18.4,12.4
	c-0.2,0-0.4,0.2-0.4,0.4c0,0.2,0.2,0.4,0.4,0.4c0.3,0,0.5-0.2,0.5-0.4C18.8,12.6,18.6,12.4,18.4,12.4z"/>
</svg>
