<svg width="41" height="40" viewBox="0 0 41 40" fill="none" xmlns="http://www.w3.org/2000/svg">
<g opacity="0.2">
<path d="M4 15.1406H36.5V30C36.5 30.3315 36.3683 30.6495 36.1339 30.8839C35.8995 31.1183 35.5815 31.25 35.25 31.25H5.25C4.91848 31.25 4.60054 31.1183 4.36612 30.8839C4.1317 30.6495 4 30.3315 4 30V15.1406Z" fill="currentColor"/>
<path d="M4 15.1406H36.5V30C36.5 30.3315 36.3683 30.6495 36.1339 30.8839C35.8995 31.1183 35.5815 31.25 35.25 31.25H5.25C4.91848 31.25 4.60054 31.1183 4.36612 30.8839C4.1317 30.6495 4 30.3315 4 30V15.1406Z" fill="white" fill-opacity="0.2"/>
</g>
<path d="M26.5 26.25H31.5M19 26.25H21.5M4 15.1406H36.5M5.25 8.75H35.25C35.9404 8.75 36.5 9.30964 36.5 10V30C36.5 30.6904 35.9404 31.25 35.25 31.25H5.25C4.55964 31.25 4 30.6904 4 30V10C4 9.30964 4.55964 8.75 5.25 8.75Z" stroke="currentColor" stroke-width="2" stroke-linecap="round" stroke-linejoin="round"/>
<path d="M26.5 26.25H31.5M19 26.25H21.5M4 15.1406H36.5M5.25 8.75H35.25C35.9404 8.75 36.5 9.30964 36.5 10V30C36.5 30.6904 35.9404 31.25 35.25 31.25H5.25C4.55964 31.25 4 30.6904 4 30V10C4 9.30964 4.55964 8.75 5.25 8.75Z" stroke="white" stroke-opacity="0.2" stroke-width="2" stroke-linecap="round" stroke-linejoin="round"/>
</svg>
