<svg width="41" height="40" viewBox="0 0 41 40" fill="none" xmlns="http://www.w3.org/2000/svg">
<g opacity="0.2">
<path d="M29 6.25H20.25L12.5781 16.25L20.25 35L37.75 16.25L29 6.25Z" fill="currentColor"/>
<path d="M29 6.25H20.25L12.5781 16.25L20.25 35L37.75 16.25L29 6.25Z" fill="white" fill-opacity="0.2"/>
</g>
<path d="M11.5 6.25H29L37.75 16.25L20.25 35L2.75 16.25L11.5 6.25Z" stroke="currentColor" stroke-width="2" stroke-linecap="round" stroke-linejoin="round"/>
<path d="M11.5 6.25H29L37.75 16.25L20.25 35L2.75 16.25L11.5 6.25Z" stroke="white" stroke-opacity="0.2" stroke-width="2" stroke-linecap="round" stroke-linejoin="round"/>
<path fill-rule="evenodd" clip-rule="evenodd" d="M21.0434 5.64131C20.8542 5.39462 20.5609 5.25 20.25 5.25C19.9391 5.25 19.6458 5.39462 19.4566 5.64131L12.0849 15.25H2.75C2.19772 15.25 1.75 15.6977 1.75 16.25C1.75 16.8023 2.19772 17.25 2.75 17.25H11.9068L19.3245 35.3787C19.4782 35.7545 19.844 36 20.25 36C20.656 36 21.0218 35.7545 21.1755 35.3787L28.5932 17.25H37.75C38.3023 17.25 38.75 16.8023 38.75 16.25C38.75 15.6977 38.3023 15.25 37.75 15.25H28.4151L21.0434 5.64131ZM25.8943 15.25L20.25 7.89287L14.6057 15.25H25.8943ZM14.0678 17.25L20.25 32.3593L26.4322 17.25H14.0678Z" fill="currentColor"/>
<path fill-rule="evenodd" clip-rule="evenodd" d="M21.0434 5.64131C20.8542 5.39462 20.5609 5.25 20.25 5.25C19.9391 5.25 19.6458 5.39462 19.4566 5.64131L12.0849 15.25H2.75C2.19772 15.25 1.75 15.6977 1.75 16.25C1.75 16.8023 2.19772 17.25 2.75 17.25H11.9068L19.3245 35.3787C19.4782 35.7545 19.844 36 20.25 36C20.656 36 21.0218 35.7545 21.1755 35.3787L28.5932 17.25H37.75C38.3023 17.25 38.75 16.8023 38.75 16.25C38.75 15.6977 38.3023 15.25 37.75 15.25H28.4151L21.0434 5.64131ZM25.8943 15.25L20.25 7.89287L14.6057 15.25H25.8943ZM14.0678 17.25L20.25 32.3593L26.4322 17.25H14.0678Z" fill="white" fill-opacity="0.2"/>
</svg>
