<svg width="41" height="40" viewBox="0 0 41 40" fill="none" xmlns="http://www.w3.org/2000/svg">
<g opacity="0.2">
<path d="M24.25 33.75V23.75H16.75V33.75H6.75002V18.0469C6.7491 17.8733 6.78481 17.7015 6.85482 17.5426C6.92482 17.3838 7.02754 17.2415 7.15627 17.125L19.6563 5.76562C19.8841 5.5559 20.1825 5.43948 20.4922 5.43948C20.8019 5.43948 21.1003 5.5559 21.3281 5.76562L33.8438 17.125C33.9696 17.2438 34.0703 17.3866 34.1401 17.5449C34.2098 17.7032 34.2472 17.8739 34.25 18.0469V33.75H24.25Z" fill="currentColor"/>
<path d="M24.25 33.75V23.75H16.75V33.75H6.75002V18.0469C6.7491 17.8733 6.78481 17.7015 6.85482 17.5426C6.92482 17.3838 7.02754 17.2415 7.15627 17.125L19.6563 5.76562C19.8841 5.5559 20.1825 5.43948 20.4922 5.43948C20.8019 5.43948 21.1003 5.5559 21.3281 5.76562L33.8438 17.125C33.9696 17.2438 34.0703 17.3866 34.1401 17.5449C34.2098 17.7032 34.2472 17.8739 34.25 18.0469V33.75H24.25Z" fill="white" fill-opacity="0.2"/>
</g>
<path d="M34.25 33.75V18.0469C34.2472 17.8739 34.2098 17.7032 34.14 17.5449C34.0703 17.3866 33.9695 17.2438 33.8437 17.125L21.3281 5.76562C21.1003 5.5559 20.8019 5.43948 20.4922 5.43948C20.1825 5.43948 19.8841 5.5559 19.6562 5.76562L7.15625 17.125C7.02752 17.2415 6.9248 17.3838 6.8548 17.5426C6.7848 17.7015 6.74909 17.8733 6.75 18.0469V33.75M3 33.75H38M24.25 33.75V25C24.25 24.6685 24.1183 24.3505 23.8839 24.1161C23.6495 23.8817 23.3315 23.75 23 23.75H18C17.6685 23.75 17.3505 23.8817 17.1161 24.1161C16.8817 24.3505 16.75 24.6685 16.75 25V33.75" stroke="currentColor" stroke-width="2" stroke-linecap="round" stroke-linejoin="round"/>
<path d="M34.25 33.75V18.0469C34.2472 17.8739 34.2098 17.7032 34.14 17.5449C34.0703 17.3866 33.9695 17.2438 33.8437 17.125L21.3281 5.76562C21.1003 5.5559 20.8019 5.43948 20.4922 5.43948C20.1825 5.43948 19.8841 5.5559 19.6562 5.76562L7.15625 17.125C7.02752 17.2415 6.9248 17.3838 6.8548 17.5426C6.7848 17.7015 6.74909 17.8733 6.75 18.0469V33.75M3 33.75H38M24.25 33.75V25C24.25 24.6685 24.1183 24.3505 23.8839 24.1161C23.6495 23.8817 23.3315 23.75 23 23.75H18C17.6685 23.75 17.3505 23.8817 17.1161 24.1161C16.8817 24.3505 16.75 24.6685 16.75 25V33.75" stroke="white" stroke-opacity="0.2" stroke-width="2" stroke-linecap="round" stroke-linejoin="round"/>
</svg>
