<svg width="41" height="40" viewBox="0 0 41 40" fill="none" xmlns="http://www.w3.org/2000/svg">
<g opacity="0.2">
<path d="M22.75 33.75V6.25C22.75 5.91848 22.6183 5.60054 22.3839 5.36612C22.1495 5.1317 21.8315 5 21.5 5H6.5C6.16848 5 5.85054 5.1317 5.61612 5.36612C5.3817 5.60054 5.25 5.91848 5.25 6.25V33.75" fill="currentColor"/>
<path d="M22.75 33.75V6.25C22.75 5.91848 22.6183 5.60054 22.3839 5.36612C22.1495 5.1317 21.8315 5 21.5 5H6.5C6.16848 5 5.85054 5.1317 5.61612 5.36612C5.3817 5.60054 5.25 5.91848 5.25 6.25V33.75" fill="white" fill-opacity="0.2"/>
</g>
<path d="M2.75 33.75H37.75M22.75 33.75V6.25C22.75 5.91848 22.6183 5.60054 22.3839 5.36612C22.1495 5.1317 21.8315 5 21.5 5H6.5C6.16848 5 5.85054 5.1317 5.61612 5.36612C5.3817 5.60054 5.25 5.91848 5.25 6.25V33.75M35.25 33.75V16.25C35.25 15.9185 35.1183 15.6005 34.8839 15.3661C34.6495 15.1317 34.3315 15 34 15H22.75M10.25 11.25H15.25M12.75 21.25H17.75M10.25 27.5H15.25M27.75 27.5H30.25M27.75 21.25H30.25" stroke="currentColor" stroke-width="2" stroke-linecap="round" stroke-linejoin="round"/>
<path d="M2.75 33.75H37.75M22.75 33.75V6.25C22.75 5.91848 22.6183 5.60054 22.3839 5.36612C22.1495 5.1317 21.8315 5 21.5 5H6.5C6.16848 5 5.85054 5.1317 5.61612 5.36612C5.3817 5.60054 5.25 5.91848 5.25 6.25V33.75M35.25 33.75V16.25C35.25 15.9185 35.1183 15.6005 34.8839 15.3661C34.6495 15.1317 34.3315 15 34 15H22.75M10.25 11.25H15.25M12.75 21.25H17.75M10.25 27.5H15.25M27.75 27.5H30.25M27.75 21.25H30.25" stroke="white" stroke-opacity="0.2" stroke-width="2" stroke-linecap="round" stroke-linejoin="round"/>
</svg>
