<svg width="24" height="24" viewBox="0 0 24 24" fill="none" xmlns="http://www.w3.org/2000/svg">
<path fill-rule="evenodd" clip-rule="evenodd" d="M12.3701 18.7842C12.1442 18.659 11.8698 18.6588 11.6437 18.7838L7.17814 21.2526C6.63021 21.5556 5.97424 21.0935 6.07505 20.4755L6.94602 15.1365C6.98437 14.9014 6.90875 14.662 6.74227 14.4916L3.0213 10.6829C2.59445 10.246 2.84094 9.50939 3.44478 9.41737L8.51384 8.64486C8.76121 8.60716 8.97348 8.44858 9.07979 8.22206L11.3211 3.44662C11.591 2.87148 12.409 2.87148 12.6789 3.44662L14.9202 8.22206C15.0265 8.44858 15.2388 8.60716 15.4862 8.64486L20.5552 9.41737C21.1591 9.50939 21.4055 10.246 20.9787 10.6829L17.2577 14.4916C17.0913 14.662 17.0156 14.9014 17.054 15.1365L17.9246 20.4737C18.0255 21.0919 17.3689 21.554 16.8209 21.2504L12.3701 18.7842Z" fill="currentColor"/>
</svg>
