<svg width="41" height="40" viewBox="0 0 41 40" fill="none" xmlns="http://www.w3.org/2000/svg">
<g opacity="0.2">
<path fill-rule="evenodd" clip-rule="evenodd" d="M14 33.75V11.25H6.5C6.16848 11.25 5.85054 11.3817 5.61612 11.6161C5.3817 11.8505 5.25 12.1685 5.25 12.5V32.5C5.25 32.8315 5.3817 33.1495 5.61612 33.3839C5.85054 33.6183 6.16848 33.75 6.5 33.75H14ZM26.5 33.75V11.25H34C34.3315 11.25 34.6495 11.3817 34.8839 11.6161C35.1183 11.8505 35.25 12.1685 35.25 12.5V32.5C35.25 32.8315 35.1183 33.1495 34.8839 33.3839C34.6495 33.6183 34.3315 33.75 34 33.75H26.5Z" fill="currentColor"/>
<path fill-rule="evenodd" clip-rule="evenodd" d="M14 33.75V11.25H6.5C6.16848 11.25 5.85054 11.3817 5.61612 11.6161C5.3817 11.8505 5.25 12.1685 5.25 12.5V32.5C5.25 32.8315 5.3817 33.1495 5.61612 33.3839C5.85054 33.6183 6.16848 33.75 6.5 33.75H14ZM26.5 33.75V11.25H34C34.3315 11.25 34.6495 11.3817 34.8839 11.6161C35.1183 11.8505 35.25 12.1685 35.25 12.5V32.5C35.25 32.8315 35.1183 33.1495 34.8839 33.3839C34.6495 33.6183 34.3315 33.75 34 33.75H26.5Z" fill="white" fill-opacity="0.2"/>
</g>
<path fill-rule="evenodd" clip-rule="evenodd" d="M16.5 5.25C15.5717 5.25 14.6815 5.61875 14.0251 6.27513C13.3687 6.9315 13 7.82174 13 8.75V10.25H6.5C5.25736 10.25 4.25 11.2574 4.25 12.5V32.5C4.25 33.7426 5.25736 34.75 6.5 34.75H14H26.5H34C35.2426 34.75 36.25 33.7426 36.25 32.5V12.5C36.25 11.2574 35.2426 10.25 34 10.25H27.5V8.75C27.5 7.82174 27.1313 6.9315 26.4749 6.27513C25.8185 5.61875 24.9283 5.25 24 5.25H16.5ZM25.5 10.25V8.75C25.5 8.35218 25.342 7.97064 25.0607 7.68934C24.7794 7.40804 24.3978 7.25 24 7.25H16.5C16.1022 7.25 15.7206 7.40804 15.4393 7.68934C15.158 7.97064 15 8.35218 15 8.75V10.25H25.5ZM15 12.25H25.5V32.75H15V12.25ZM13 12.25H6.5C6.36193 12.25 6.25 12.3619 6.25 12.5V32.5C6.25 32.6381 6.36193 32.75 6.5 32.75H13V12.25ZM27.5 32.75V12.25H34C34.1381 12.25 34.25 12.3619 34.25 12.5V32.5C34.25 32.6381 34.1381 32.75 34 32.75H27.5Z" fill="currentColor"/>
<path fill-rule="evenodd" clip-rule="evenodd" d="M16.5 5.25C15.5717 5.25 14.6815 5.61875 14.0251 6.27513C13.3687 6.9315 13 7.82174 13 8.75V10.25H6.5C5.25736 10.25 4.25 11.2574 4.25 12.5V32.5C4.25 33.7426 5.25736 34.75 6.5 34.75H14H26.5H34C35.2426 34.75 36.25 33.7426 36.25 32.5V12.5C36.25 11.2574 35.2426 10.25 34 10.25H27.5V8.75C27.5 7.82174 27.1313 6.9315 26.4749 6.27513C25.8185 5.61875 24.9283 5.25 24 5.25H16.5ZM25.5 10.25V8.75C25.5 8.35218 25.342 7.97064 25.0607 7.68934C24.7794 7.40804 24.3978 7.25 24 7.25H16.5C16.1022 7.25 15.7206 7.40804 15.4393 7.68934C15.158 7.97064 15 8.35218 15 8.75V10.25H25.5ZM15 12.25H25.5V32.75H15V12.25ZM13 12.25H6.5C6.36193 12.25 6.25 12.3619 6.25 12.5V32.5C6.25 32.6381 6.36193 32.75 6.5 32.75H13V12.25ZM27.5 32.75V12.25H34C34.1381 12.25 34.25 12.3619 34.25 12.5V32.5C34.25 32.6381 34.1381 32.75 34 32.75H27.5Z" fill="white" fill-opacity="0.2"/>
</svg>
