<svg width="41" height="40" viewBox="0 0 41 40" fill="none" xmlns="http://www.w3.org/2000/svg">
<g opacity="0.2">
<path d="M6.5 30C6.5 30.663 6.76339 31.2989 7.23223 31.7678C7.70107 32.2366 8.33696 32.5 9 32.5H34C34.3315 32.5 34.6495 32.3683 34.8839 32.1339C35.1183 31.8995 35.25 31.5815 35.25 31.25V13.75C35.25 13.4185 35.1183 13.1005 34.8839 12.8661C34.6495 12.6317 34.3315 12.5 34 12.5H9C8.33696 12.5 7.70107 12.2366 7.23223 11.7678C6.76339 11.2989 6.5 10.663 6.5 10V30Z" fill="currentColor"/>
<path d="M6.5 30C6.5 30.663 6.76339 31.2989 7.23223 31.7678C7.70107 32.2366 8.33696 32.5 9 32.5H34C34.3315 32.5 34.6495 32.3683 34.8839 32.1339C35.1183 31.8995 35.25 31.5815 35.25 31.25V13.75C35.25 13.4185 35.1183 13.1005 34.8839 12.8661C34.6495 12.6317 34.3315 12.5 34 12.5H9C8.33696 12.5 7.70107 12.2366 7.23223 11.7678C6.76339 11.2989 6.5 10.663 6.5 10V30Z" fill="white" fill-opacity="0.2"/>
</g>
<path d="M6.5 10V30C6.5 30.663 6.76339 31.2989 7.23223 31.7678C7.70107 32.2366 8.33696 32.5 9 32.5H34C34.3315 32.5 34.6495 32.3683 34.8839 32.1339C35.1183 31.8995 35.25 31.5815 35.25 31.25V13.75C35.25 13.4185 35.1183 13.1005 34.8839 12.8661C34.6495 12.6317 34.3315 12.5 34 12.5H9C8.33696 12.5 7.70107 12.2366 7.23223 11.7678C6.76339 11.2989 6.5 10.663 6.5 10ZM6.5 10C6.5 9.33696 6.76339 8.70107 7.23223 8.23223C7.70107 7.76339 8.33696 7.5 9 7.5H30.25" stroke="currentColor" stroke-width="2" stroke-linecap="round" stroke-linejoin="round"/>
<path d="M6.5 10V30C6.5 30.663 6.76339 31.2989 7.23223 31.7678C7.70107 32.2366 8.33696 32.5 9 32.5H34C34.3315 32.5 34.6495 32.3683 34.8839 32.1339C35.1183 31.8995 35.25 31.5815 35.25 31.25V13.75C35.25 13.4185 35.1183 13.1005 34.8839 12.8661C34.6495 12.6317 34.3315 12.5 34 12.5H9C8.33696 12.5 7.70107 12.2366 7.23223 11.7678C6.76339 11.2989 6.5 10.663 6.5 10ZM6.5 10C6.5 9.33696 6.76339 8.70107 7.23223 8.23223C7.70107 7.76339 8.33696 7.5 9 7.5H30.25" stroke="white" stroke-opacity="0.2" stroke-width="2" stroke-linecap="round" stroke-linejoin="round"/>
<path d="M28.375 24.375C29.4105 24.375 30.25 23.5355 30.25 22.5C30.25 21.4645 29.4105 20.625 28.375 20.625C27.3395 20.625 26.5 21.4645 26.5 22.5C26.5 23.5355 27.3395 24.375 28.375 24.375Z" fill="#4B465C"/>
<path d="M28.375 24.375C29.4105 24.375 30.25 23.5355 30.25 22.5C30.25 21.4645 29.4105 20.625 28.375 20.625C27.3395 20.625 26.5 21.4645 26.5 22.5C26.5 23.5355 27.3395 24.375 28.375 24.375Z" fill="white" fill-opacity="0.2"/>
</svg>
