<svg width="18" height="18" viewBox="0 0 18 18" fill="none" xmlns="http://www.w3.org/2000/svg">
<path d="M7.35324 6.42124L9.00024 2.91206L10.6472 6.42122C10.6472 6.42123 10.6472 6.42124 10.6472 6.42125C10.812 6.77239 11.1411 7.01815 11.5245 7.07658C11.5245 7.07658 11.5245 7.07658 11.5245 7.07658L15.254 7.64495L12.5143 10.4492L12.5142 10.4493C12.2564 10.7133 12.139 11.0843 12.1986 11.4489L12.8391 15.3753L9.56867 13.5631C9.21857 13.3691 8.7932 13.3688 8.44272 13.5625L5.16114 15.3768L5.80193 11.4488L5.20976 11.3522L5.80193 11.4488C5.86137 11.0844 5.74418 10.7133 5.48612 10.4492C5.48612 10.4492 5.48612 10.4492 5.48612 10.4492L2.74648 7.64495L6.47602 7.07658C6.85944 7.01814 7.18846 6.77235 7.35324 6.42125C7.35324 6.42125 7.35324 6.42124 7.35324 6.42124ZM5.14869 15.4531L5.1487 15.453L5.14869 15.4531ZM2.6954 7.59266C2.6954 7.59267 2.6954 7.59267 2.6954 7.59267L2.6954 7.59266Z" stroke="#FF9F43" stroke-width="1.2"/>
</svg>
