<svg width="14" height="24" viewBox="0 0 14 24" fill="none" xmlns="http://www.w3.org/2000/svg">
<path fill-rule="evenodd" clip-rule="evenodd" d="M6.29254 22C5.87808 21.973 5.52313 21.595 5.59951 21.1286L6.5728 15.1853C6.61141 14.9496 6.53539 14.7095 6.36812 14.539L2.21535 10.3047C1.78705 9.86801 2.0335 9.12986 2.63823 9.03805L8.30802 8.17732C8.55517 8.1398 8.76738 7.98161 8.87392 7.75548L11.3859 2.42396C11.5046 2.172 11.7285 2.03068 11.9653 2L11.9972 2V19.0592C11.8978 19.0691 11.7999 19.0989 11.7097 19.1486L6.70146 21.9068C6.59858 21.9634 6.49194 21.9932 6.38724 22H6.29254Z" fill="currentColor"/>
</svg>
